<?xml version="1.0" encoding="utf-8"?>
<!-- Generator: Adobe Illustrator 20.0.0, SVG Export Plug-In . SVG Version: 6.00 Build 0)  -->
<svg version="1.1" id="Слой_1" xmlns="http://www.w3.org/2000/svg" xmlns:xlink="http://www.w3.org/1999/xlink" x="0px" y="0px"
	 viewBox="0 0 333.5 64" style="enable-background:new 0 0 333.5 64;" xml:space="preserve">
<style type="text/css">
	.st0{fill:#D76443;stroke:#7BBFAF;stroke-width:2;stroke-miterlimit:10;}
</style>
<g>
	<path class="st0" d="M34.9,46.7h-8v8h-16v-8h-8v-8h8v8h16v-32h8V46.7z"/>
	<path class="st0" d="M74.9,46.7h-8v8h-16v-8h-8v-32h8v32h16v-32h8V46.7z"/>
	<path class="st0" d="M90.9,22.7h-8v-8h8V22.7z M90.9,54.7h-8v-24h8V54.7z"/>
	<path class="st0" d="M130.9,54.7h-24v-8h-8v-16h8v16h24V54.7z M130.9,22.7h-24v-8h24V22.7z"/>
	<path class="st0" d="M170.9,30.7h-8v16h-8v8h-16v-8h16v-8h-8v-8h-8v-16h8v16h16v-16h8V30.7z"/>
	<path class="st0" d="M226.9,22.7h-24v-8h24V22.7z M218.9,54.7h-8v-24h8V54.7z"/>
	<path class="st0" d="M242.9,22.7h-8v-8h8V22.7z M242.9,54.7h-8v-24h8V54.7z"/>
	<path class="st0" d="M290.9,54.7h-8v-32h-8v8h-8v-8h-8v32h-8v-32h8v-8h8v8h8v-8h8v8h8V54.7z"/>
	<path class="st0" d="M330.9,54.7h-24v-8h-8v-24h8v-8h24v8h-24v24h24V54.7z M322.9,38.7h-8v-8h8V38.7z"/>
</g>
</svg>
